<mxfile host="app.diagrams.net" modified="2020-10-13T01:51:22.728Z" agent="5.0 (Windows NT 10.0; Win64; x64) AppleWebKit/537.36 (KHTML, like Gecko) Chrome/85.0.4183.121 Safari/537.36" etag="kkQ7oqJfUBb0adDA2Zic" version="13.7.9" type="github">
  <diagram id="X0P5ur9kLWbMg-U9PXjw" name="Page-1">
    <mxGraphModel dx="1021" dy="567" grid="1" gridSize="10" guides="1" tooltips="1" connect="1" arrows="1" fold="1" page="1" pageScale="1" pageWidth="850" pageHeight="1100" background="#B9E0A5" math="0" shadow="1">
      <root>
        <mxCell id="0" />
        <mxCell id="1" parent="0" />
        <mxCell id="ZnSzVH5MQFXxRki79Utu-146" value="" style="rounded=0;whiteSpace=wrap;html=1;glass=1;comic=0;strokeColor=#666666;fillColor=#f5f5f5;fontFamily=Comic Sans MS;fontSize=20;fontColor=#333333;" vertex="1" parent="1">
          <mxGeometry y="770" width="400" height="40" as="geometry" />
        </mxCell>
        <mxCell id="ZnSzVH5MQFXxRki79Utu-142" value="" style="rounded=0;whiteSpace=wrap;html=1;glass=1;comic=0;strokeColor=#666666;fillColor=#f5f5f5;fontFamily=Comic Sans MS;fontSize=20;fontColor=#333333;" vertex="1" parent="1">
          <mxGeometry y="610" width="400" height="40" as="geometry" />
        </mxCell>
        <mxCell id="ZnSzVH5MQFXxRki79Utu-143" value="" style="rounded=0;whiteSpace=wrap;html=1;glass=1;comic=0;strokeColor=#666666;fillColor=#f5f5f5;fontFamily=Comic Sans MS;fontSize=20;fontColor=#333333;" vertex="1" parent="1">
          <mxGeometry y="690" width="400" height="40" as="geometry" />
        </mxCell>
        <mxCell id="ZnSzVH5MQFXxRki79Utu-144" value="" style="rounded=0;whiteSpace=wrap;html=1;glass=1;comic=0;strokeColor=#666666;fillColor=#f5f5f5;fontFamily=Comic Sans MS;fontSize=20;fontColor=#333333;" vertex="1" parent="1">
          <mxGeometry y="530" width="400" height="40" as="geometry" />
        </mxCell>
        <mxCell id="ZnSzVH5MQFXxRki79Utu-145" value="" style="rounded=0;whiteSpace=wrap;html=1;glass=1;comic=0;strokeColor=#666666;fillColor=#f5f5f5;fontFamily=Comic Sans MS;fontSize=20;fontColor=#333333;" vertex="1" parent="1">
          <mxGeometry y="450" width="400" height="40" as="geometry" />
        </mxCell>
        <mxCell id="ZnSzVH5MQFXxRki79Utu-140" value="" style="rounded=0;whiteSpace=wrap;html=1;glass=1;comic=0;strokeColor=#666666;fillColor=#f5f5f5;fontFamily=Comic Sans MS;fontSize=20;fontColor=#333333;" vertex="1" parent="1">
          <mxGeometry y="290" width="400" height="40" as="geometry" />
        </mxCell>
        <mxCell id="ZnSzVH5MQFXxRki79Utu-141" value="" style="rounded=0;whiteSpace=wrap;html=1;glass=1;comic=0;strokeColor=#666666;fillColor=#f5f5f5;fontFamily=Comic Sans MS;fontSize=20;fontColor=#333333;" vertex="1" parent="1">
          <mxGeometry y="370" width="400" height="40" as="geometry" />
        </mxCell>
        <mxCell id="ZnSzVH5MQFXxRki79Utu-139" value="" style="rounded=0;whiteSpace=wrap;html=1;glass=1;comic=0;strokeColor=#666666;fillColor=#f5f5f5;fontFamily=Comic Sans MS;fontSize=20;fontColor=#333333;" vertex="1" parent="1">
          <mxGeometry y="210" width="400" height="40" as="geometry" />
        </mxCell>
        <mxCell id="ZnSzVH5MQFXxRki79Utu-138" value="" style="rounded=0;whiteSpace=wrap;html=1;glass=1;comic=0;strokeColor=#666666;fillColor=#f5f5f5;fontFamily=Comic Sans MS;fontSize=20;fontColor=#333333;" vertex="1" parent="1">
          <mxGeometry y="130" width="400" height="40" as="geometry" />
        </mxCell>
        <mxCell id="ZnSzVH5MQFXxRki79Utu-2" value="Golf Scorecard" style="text;html=1;strokeColor=none;fillColor=none;align=center;verticalAlign=middle;whiteSpace=wrap;rounded=0;imageWidth=24;fontFamily=Comic Sans MS;fontSize=24;fontStyle=1;" vertex="1" parent="1">
          <mxGeometry x="40" y="60" width="200" height="20" as="geometry" />
        </mxCell>
        <mxCell id="ZnSzVH5MQFXxRki79Utu-3" value="Hole" style="text;html=1;strokeColor=none;fillColor=none;align=center;verticalAlign=middle;whiteSpace=wrap;rounded=0;fontFamily=Comic Sans MS;fontSize=12;fontStyle=3;" vertex="1" parent="1">
          <mxGeometry x="40" y="100" width="40" height="20" as="geometry" />
        </mxCell>
        <mxCell id="ZnSzVH5MQFXxRki79Utu-4" value="Over" style="text;html=1;strokeColor=none;fillColor=none;align=center;verticalAlign=middle;whiteSpace=wrap;rounded=0;fontFamily=Comic Sans MS;fontSize=12;fontStyle=3;" vertex="1" parent="1">
          <mxGeometry x="280" y="100" width="40" height="20" as="geometry" />
        </mxCell>
        <mxCell id="ZnSzVH5MQFXxRki79Utu-5" value="Score" style="text;html=1;strokeColor=none;fillColor=none;align=center;verticalAlign=middle;whiteSpace=wrap;rounded=0;fontFamily=Comic Sans MS;fontSize=12;fontStyle=3;" vertex="1" parent="1">
          <mxGeometry x="200" y="100" width="40" height="20" as="geometry" />
        </mxCell>
        <mxCell id="ZnSzVH5MQFXxRki79Utu-6" value="Par" style="text;html=1;strokeColor=none;fillColor=none;align=center;verticalAlign=middle;whiteSpace=wrap;rounded=0;fontFamily=Comic Sans MS;fontSize=12;fontStyle=3;" vertex="1" parent="1">
          <mxGeometry x="120" y="100" width="40" height="20" as="geometry" />
        </mxCell>
        <mxCell id="ZnSzVH5MQFXxRki79Utu-8" value="1" style="text;html=1;strokeColor=none;fillColor=none;align=center;verticalAlign=middle;whiteSpace=wrap;rounded=0;fontFamily=Comic Sans MS;fontSize=12;comic=0;" vertex="1" parent="1">
          <mxGeometry x="40" y="140" width="40" height="20" as="geometry" />
        </mxCell>
        <mxCell id="ZnSzVH5MQFXxRki79Utu-9" value="2" style="text;html=1;strokeColor=none;fillColor=none;align=center;verticalAlign=middle;whiteSpace=wrap;rounded=0;fontFamily=Comic Sans MS;fontSize=12;comic=0;" vertex="1" parent="1">
          <mxGeometry x="40" y="180" width="40" height="20" as="geometry" />
        </mxCell>
        <mxCell id="ZnSzVH5MQFXxRki79Utu-27" value="3" style="text;html=1;strokeColor=none;fillColor=none;align=center;verticalAlign=middle;whiteSpace=wrap;rounded=0;fontFamily=Comic Sans MS;fontSize=12;comic=0;" vertex="1" parent="1">
          <mxGeometry x="40" y="220" width="40" height="20" as="geometry" />
        </mxCell>
        <mxCell id="ZnSzVH5MQFXxRki79Utu-28" value="4" style="text;html=1;strokeColor=none;fillColor=none;align=center;verticalAlign=middle;whiteSpace=wrap;rounded=0;fontFamily=Comic Sans MS;fontSize=12;comic=0;" vertex="1" parent="1">
          <mxGeometry x="40" y="260" width="40" height="20" as="geometry" />
        </mxCell>
        <mxCell id="ZnSzVH5MQFXxRki79Utu-29" value="5" style="text;html=1;strokeColor=none;fillColor=none;align=center;verticalAlign=middle;whiteSpace=wrap;rounded=0;fontFamily=Comic Sans MS;fontSize=12;comic=0;" vertex="1" parent="1">
          <mxGeometry x="40" y="300" width="40" height="20" as="geometry" />
        </mxCell>
        <mxCell id="ZnSzVH5MQFXxRki79Utu-30" value="6" style="text;html=1;strokeColor=none;fillColor=none;align=center;verticalAlign=middle;whiteSpace=wrap;rounded=0;fontFamily=Comic Sans MS;fontSize=12;comic=0;" vertex="1" parent="1">
          <mxGeometry x="40" y="340" width="40" height="20" as="geometry" />
        </mxCell>
        <mxCell id="ZnSzVH5MQFXxRki79Utu-31" value="7" style="text;html=1;strokeColor=none;fillColor=none;align=center;verticalAlign=middle;whiteSpace=wrap;rounded=0;fontFamily=Comic Sans MS;fontSize=12;comic=0;" vertex="1" parent="1">
          <mxGeometry x="40" y="380" width="40" height="20" as="geometry" />
        </mxCell>
        <mxCell id="ZnSzVH5MQFXxRki79Utu-32" value="8" style="text;html=1;strokeColor=none;fillColor=none;align=center;verticalAlign=middle;whiteSpace=wrap;rounded=0;fontFamily=Comic Sans MS;fontSize=12;comic=0;" vertex="1" parent="1">
          <mxGeometry x="40" y="420" width="40" height="20" as="geometry" />
        </mxCell>
        <mxCell id="ZnSzVH5MQFXxRki79Utu-33" value="9" style="text;html=1;strokeColor=none;fillColor=none;align=center;verticalAlign=middle;whiteSpace=wrap;rounded=0;fontFamily=Comic Sans MS;fontSize=12;comic=0;" vertex="1" parent="1">
          <mxGeometry x="40" y="460" width="40" height="20" as="geometry" />
        </mxCell>
        <mxCell id="ZnSzVH5MQFXxRki79Utu-34" value="10" style="text;html=1;strokeColor=none;fillColor=none;align=center;verticalAlign=middle;whiteSpace=wrap;rounded=0;fontFamily=Comic Sans MS;fontSize=12;comic=0;" vertex="1" parent="1">
          <mxGeometry x="40" y="500" width="40" height="20" as="geometry" />
        </mxCell>
        <mxCell id="ZnSzVH5MQFXxRki79Utu-35" value="13" style="text;html=1;strokeColor=none;fillColor=none;align=center;verticalAlign=middle;whiteSpace=wrap;rounded=0;fontFamily=Comic Sans MS;fontSize=12;comic=0;" vertex="1" parent="1">
          <mxGeometry x="40" y="620" width="40" height="20" as="geometry" />
        </mxCell>
        <mxCell id="ZnSzVH5MQFXxRki79Utu-36" value="12" style="text;html=1;strokeColor=none;fillColor=none;align=center;verticalAlign=middle;whiteSpace=wrap;rounded=0;fontFamily=Comic Sans MS;fontSize=12;comic=0;" vertex="1" parent="1">
          <mxGeometry x="40" y="580" width="40" height="20" as="geometry" />
        </mxCell>
        <mxCell id="ZnSzVH5MQFXxRki79Utu-37" value="11" style="text;html=1;strokeColor=none;fillColor=none;align=center;verticalAlign=middle;whiteSpace=wrap;rounded=0;fontFamily=Comic Sans MS;fontSize=12;comic=0;" vertex="1" parent="1">
          <mxGeometry x="40" y="540" width="40" height="20" as="geometry" />
        </mxCell>
        <mxCell id="ZnSzVH5MQFXxRki79Utu-41" value="15" style="text;html=1;strokeColor=none;fillColor=none;align=center;verticalAlign=middle;whiteSpace=wrap;rounded=0;fontFamily=Comic Sans MS;fontSize=12;comic=0;" vertex="1" parent="1">
          <mxGeometry x="40" y="700" width="40" height="20" as="geometry" />
        </mxCell>
        <mxCell id="ZnSzVH5MQFXxRki79Utu-42" value="14" style="text;html=1;strokeColor=none;fillColor=none;align=center;verticalAlign=middle;whiteSpace=wrap;rounded=0;fontFamily=Comic Sans MS;fontSize=12;comic=0;" vertex="1" parent="1">
          <mxGeometry x="40" y="660" width="40" height="20" as="geometry" />
        </mxCell>
        <mxCell id="ZnSzVH5MQFXxRki79Utu-43" value="17" style="text;html=1;strokeColor=none;fillColor=none;align=center;verticalAlign=middle;whiteSpace=wrap;rounded=0;fontFamily=Comic Sans MS;fontSize=12;comic=0;" vertex="1" parent="1">
          <mxGeometry x="40" y="780" width="40" height="20" as="geometry" />
        </mxCell>
        <mxCell id="ZnSzVH5MQFXxRki79Utu-44" value="16" style="text;html=1;strokeColor=none;fillColor=none;align=center;verticalAlign=middle;whiteSpace=wrap;rounded=0;fontFamily=Comic Sans MS;fontSize=12;comic=0;" vertex="1" parent="1">
          <mxGeometry x="40" y="740" width="40" height="20" as="geometry" />
        </mxCell>
        <mxCell id="ZnSzVH5MQFXxRki79Utu-45" value="18" style="text;html=1;strokeColor=none;fillColor=none;align=center;verticalAlign=middle;whiteSpace=wrap;rounded=0;fontFamily=Comic Sans MS;fontSize=12;comic=0;" vertex="1" parent="1">
          <mxGeometry x="40" y="820" width="40" height="20" as="geometry" />
        </mxCell>
        <mxCell id="ZnSzVH5MQFXxRki79Utu-46" value="4" style="text;html=1;strokeColor=none;fillColor=none;align=center;verticalAlign=middle;whiteSpace=wrap;rounded=0;fontFamily=Comic Sans MS;fontSize=12;comic=0;" vertex="1" parent="1">
          <mxGeometry x="120" y="180" width="40" height="20" as="geometry" />
        </mxCell>
        <mxCell id="ZnSzVH5MQFXxRki79Utu-47" value="4" style="text;html=1;strokeColor=none;fillColor=none;align=center;verticalAlign=middle;whiteSpace=wrap;rounded=0;fontFamily=Comic Sans MS;fontSize=12;comic=0;" vertex="1" parent="1">
          <mxGeometry x="120" y="220" width="40" height="20" as="geometry" />
        </mxCell>
        <mxCell id="ZnSzVH5MQFXxRki79Utu-48" value="4" style="text;html=1;strokeColor=none;fillColor=none;align=center;verticalAlign=middle;whiteSpace=wrap;rounded=0;fontFamily=Comic Sans MS;fontSize=12;comic=0;" vertex="1" parent="1">
          <mxGeometry x="120" y="260" width="40" height="20" as="geometry" />
        </mxCell>
        <mxCell id="ZnSzVH5MQFXxRki79Utu-49" value="4" style="text;html=1;strokeColor=none;fillColor=none;align=center;verticalAlign=middle;whiteSpace=wrap;rounded=0;fontFamily=Comic Sans MS;fontSize=12;comic=0;" vertex="1" parent="1">
          <mxGeometry x="120" y="300" width="40" height="20" as="geometry" />
        </mxCell>
        <mxCell id="ZnSzVH5MQFXxRki79Utu-50" value="4" style="text;html=1;strokeColor=none;fillColor=none;align=center;verticalAlign=middle;whiteSpace=wrap;rounded=0;fontFamily=Comic Sans MS;fontSize=12;comic=0;" vertex="1" parent="1">
          <mxGeometry x="120" y="340" width="40" height="20" as="geometry" />
        </mxCell>
        <mxCell id="ZnSzVH5MQFXxRki79Utu-51" value="4" style="text;html=1;strokeColor=none;fillColor=none;align=center;verticalAlign=middle;whiteSpace=wrap;rounded=0;fontFamily=Comic Sans MS;fontSize=12;comic=0;" vertex="1" parent="1">
          <mxGeometry x="120" y="380" width="40" height="20" as="geometry" />
        </mxCell>
        <mxCell id="ZnSzVH5MQFXxRki79Utu-52" value="4" style="text;html=1;strokeColor=none;fillColor=none;align=center;verticalAlign=middle;whiteSpace=wrap;rounded=0;fontFamily=Comic Sans MS;fontSize=12;comic=0;" vertex="1" parent="1">
          <mxGeometry x="120" y="420" width="40" height="20" as="geometry" />
        </mxCell>
        <mxCell id="ZnSzVH5MQFXxRki79Utu-53" value="4" style="text;html=1;strokeColor=none;fillColor=none;align=center;verticalAlign=middle;whiteSpace=wrap;rounded=0;fontFamily=Comic Sans MS;fontSize=12;comic=0;" vertex="1" parent="1">
          <mxGeometry x="120" y="460" width="40" height="20" as="geometry" />
        </mxCell>
        <mxCell id="ZnSzVH5MQFXxRki79Utu-54" value="4" style="text;html=1;strokeColor=none;fillColor=none;align=center;verticalAlign=middle;whiteSpace=wrap;rounded=0;fontFamily=Comic Sans MS;fontSize=12;comic=0;" vertex="1" parent="1">
          <mxGeometry x="120" y="500" width="40" height="20" as="geometry" />
        </mxCell>
        <mxCell id="ZnSzVH5MQFXxRki79Utu-55" value="4" style="text;html=1;strokeColor=none;fillColor=none;align=center;verticalAlign=middle;whiteSpace=wrap;rounded=0;fontFamily=Comic Sans MS;fontSize=12;comic=0;" vertex="1" parent="1">
          <mxGeometry x="120" y="620" width="40" height="20" as="geometry" />
        </mxCell>
        <mxCell id="ZnSzVH5MQFXxRki79Utu-56" value="4" style="text;html=1;strokeColor=none;fillColor=none;align=center;verticalAlign=middle;whiteSpace=wrap;rounded=0;fontFamily=Comic Sans MS;fontSize=12;comic=0;" vertex="1" parent="1">
          <mxGeometry x="120" y="580" width="40" height="20" as="geometry" />
        </mxCell>
        <mxCell id="ZnSzVH5MQFXxRki79Utu-57" value="4" style="text;html=1;strokeColor=none;fillColor=none;align=center;verticalAlign=middle;whiteSpace=wrap;rounded=0;fontFamily=Comic Sans MS;fontSize=12;comic=0;" vertex="1" parent="1">
          <mxGeometry x="120" y="540" width="40" height="20" as="geometry" />
        </mxCell>
        <mxCell id="ZnSzVH5MQFXxRki79Utu-58" value="4" style="text;html=1;strokeColor=none;fillColor=none;align=center;verticalAlign=middle;whiteSpace=wrap;rounded=0;fontFamily=Comic Sans MS;fontSize=12;comic=0;" vertex="1" parent="1">
          <mxGeometry x="120" y="700" width="40" height="20" as="geometry" />
        </mxCell>
        <mxCell id="ZnSzVH5MQFXxRki79Utu-59" value="4" style="text;html=1;strokeColor=none;fillColor=none;align=center;verticalAlign=middle;whiteSpace=wrap;rounded=0;fontFamily=Comic Sans MS;fontSize=12;comic=0;" vertex="1" parent="1">
          <mxGeometry x="120" y="660" width="40" height="20" as="geometry" />
        </mxCell>
        <mxCell id="ZnSzVH5MQFXxRki79Utu-60" value="4" style="text;html=1;strokeColor=none;fillColor=none;align=center;verticalAlign=middle;whiteSpace=wrap;rounded=0;fontFamily=Comic Sans MS;fontSize=12;comic=0;" vertex="1" parent="1">
          <mxGeometry x="120" y="780" width="40" height="20" as="geometry" />
        </mxCell>
        <mxCell id="ZnSzVH5MQFXxRki79Utu-61" value="4" style="text;html=1;strokeColor=none;fillColor=none;align=center;verticalAlign=middle;whiteSpace=wrap;rounded=0;fontFamily=Comic Sans MS;fontSize=12;comic=0;" vertex="1" parent="1">
          <mxGeometry x="120" y="740" width="40" height="20" as="geometry" />
        </mxCell>
        <mxCell id="ZnSzVH5MQFXxRki79Utu-62" value="4" style="text;html=1;strokeColor=none;fillColor=none;align=center;verticalAlign=middle;whiteSpace=wrap;rounded=0;fontFamily=Comic Sans MS;fontSize=12;comic=0;" vertex="1" parent="1">
          <mxGeometry x="120" y="820" width="40" height="20" as="geometry" />
        </mxCell>
        <mxCell id="ZnSzVH5MQFXxRki79Utu-63" value="4" style="text;html=1;strokeColor=none;fillColor=none;align=center;verticalAlign=middle;whiteSpace=wrap;rounded=0;fontFamily=Comic Sans MS;fontSize=12;comic=0;" vertex="1" parent="1">
          <mxGeometry x="120" y="140" width="40" height="20" as="geometry" />
        </mxCell>
        <mxCell id="ZnSzVH5MQFXxRki79Utu-64" value="-" style="text;html=1;align=center;verticalAlign=middle;resizable=0;points=[];autosize=1;fontSize=12;fontFamily=Comic Sans MS;fontStyle=1" vertex="1" parent="1">
          <mxGeometry x="210" y="140" width="20" height="20" as="geometry" />
        </mxCell>
        <mxCell id="ZnSzVH5MQFXxRki79Utu-65" value="-" style="text;html=1;align=center;verticalAlign=middle;resizable=0;points=[];autosize=1;fontSize=12;fontFamily=Comic Sans MS;fontStyle=1" vertex="1" parent="1">
          <mxGeometry x="210" y="180" width="20" height="20" as="geometry" />
        </mxCell>
        <mxCell id="ZnSzVH5MQFXxRki79Utu-66" value="-" style="text;html=1;align=center;verticalAlign=middle;resizable=0;points=[];autosize=1;fontSize=12;fontFamily=Comic Sans MS;fontStyle=1" vertex="1" parent="1">
          <mxGeometry x="210" y="220" width="20" height="20" as="geometry" />
        </mxCell>
        <mxCell id="ZnSzVH5MQFXxRki79Utu-68" value="-" style="text;html=1;align=center;verticalAlign=middle;resizable=0;points=[];autosize=1;fontSize=12;fontFamily=Comic Sans MS;fontStyle=1" vertex="1" parent="1">
          <mxGeometry x="210" y="260" width="20" height="20" as="geometry" />
        </mxCell>
        <mxCell id="ZnSzVH5MQFXxRki79Utu-69" value="-" style="text;html=1;align=center;verticalAlign=middle;resizable=0;points=[];autosize=1;fontSize=12;fontFamily=Comic Sans MS;fontStyle=1" vertex="1" parent="1">
          <mxGeometry x="210" y="300" width="20" height="20" as="geometry" />
        </mxCell>
        <mxCell id="ZnSzVH5MQFXxRki79Utu-70" value="-" style="text;html=1;align=center;verticalAlign=middle;resizable=0;points=[];autosize=1;fontSize=12;fontFamily=Comic Sans MS;fontStyle=1" vertex="1" parent="1">
          <mxGeometry x="210" y="340" width="20" height="20" as="geometry" />
        </mxCell>
        <mxCell id="ZnSzVH5MQFXxRki79Utu-71" value="-" style="text;html=1;align=center;verticalAlign=middle;resizable=0;points=[];autosize=1;fontSize=12;fontFamily=Comic Sans MS;fontStyle=1" vertex="1" parent="1">
          <mxGeometry x="210" y="380" width="20" height="20" as="geometry" />
        </mxCell>
        <mxCell id="ZnSzVH5MQFXxRki79Utu-72" value="-" style="text;html=1;align=center;verticalAlign=middle;resizable=0;points=[];autosize=1;fontSize=12;fontFamily=Comic Sans MS;fontStyle=1" vertex="1" parent="1">
          <mxGeometry x="210" y="420" width="20" height="20" as="geometry" />
        </mxCell>
        <mxCell id="ZnSzVH5MQFXxRki79Utu-73" value="-" style="text;html=1;align=center;verticalAlign=middle;resizable=0;points=[];autosize=1;fontSize=12;fontFamily=Comic Sans MS;fontStyle=1" vertex="1" parent="1">
          <mxGeometry x="210" y="460" width="20" height="20" as="geometry" />
        </mxCell>
        <mxCell id="ZnSzVH5MQFXxRki79Utu-74" value="-" style="text;html=1;align=center;verticalAlign=middle;resizable=0;points=[];autosize=1;fontSize=12;fontFamily=Comic Sans MS;fontStyle=1" vertex="1" parent="1">
          <mxGeometry x="210" y="500" width="20" height="20" as="geometry" />
        </mxCell>
        <mxCell id="ZnSzVH5MQFXxRki79Utu-75" value="-" style="text;html=1;align=center;verticalAlign=middle;resizable=0;points=[];autosize=1;fontSize=12;fontFamily=Comic Sans MS;fontStyle=1" vertex="1" parent="1">
          <mxGeometry x="210" y="540" width="20" height="20" as="geometry" />
        </mxCell>
        <mxCell id="ZnSzVH5MQFXxRki79Utu-76" value="-" style="text;html=1;align=center;verticalAlign=middle;resizable=0;points=[];autosize=1;fontSize=12;fontFamily=Comic Sans MS;fontStyle=1" vertex="1" parent="1">
          <mxGeometry x="210" y="580" width="20" height="20" as="geometry" />
        </mxCell>
        <mxCell id="ZnSzVH5MQFXxRki79Utu-77" value="-" style="text;html=1;align=center;verticalAlign=middle;resizable=0;points=[];autosize=1;fontSize=12;fontFamily=Comic Sans MS;fontStyle=1" vertex="1" parent="1">
          <mxGeometry x="210" y="620" width="20" height="20" as="geometry" />
        </mxCell>
        <mxCell id="ZnSzVH5MQFXxRki79Utu-78" value="-" style="text;html=1;align=center;verticalAlign=middle;resizable=0;points=[];autosize=1;fontSize=12;fontFamily=Comic Sans MS;fontStyle=1" vertex="1" parent="1">
          <mxGeometry x="210" y="660" width="20" height="20" as="geometry" />
        </mxCell>
        <mxCell id="ZnSzVH5MQFXxRki79Utu-79" value="-" style="text;html=1;align=center;verticalAlign=middle;resizable=0;points=[];autosize=1;fontSize=12;fontFamily=Comic Sans MS;fontStyle=1" vertex="1" parent="1">
          <mxGeometry x="210" y="700" width="20" height="20" as="geometry" />
        </mxCell>
        <mxCell id="ZnSzVH5MQFXxRki79Utu-80" value="-" style="text;html=1;align=center;verticalAlign=middle;resizable=0;points=[];autosize=1;fontSize=12;fontFamily=Comic Sans MS;fontStyle=1" vertex="1" parent="1">
          <mxGeometry x="210" y="740" width="20" height="20" as="geometry" />
        </mxCell>
        <mxCell id="ZnSzVH5MQFXxRki79Utu-81" value="-" style="text;html=1;align=center;verticalAlign=middle;resizable=0;points=[];autosize=1;fontSize=12;fontFamily=Comic Sans MS;fontStyle=1" vertex="1" parent="1">
          <mxGeometry x="210" y="780" width="20" height="20" as="geometry" />
        </mxCell>
        <mxCell id="ZnSzVH5MQFXxRki79Utu-82" value="-" style="text;html=1;align=center;verticalAlign=middle;resizable=0;points=[];autosize=1;fontSize=12;fontFamily=Comic Sans MS;fontStyle=1" vertex="1" parent="1">
          <mxGeometry x="210" y="820" width="20" height="20" as="geometry" />
        </mxCell>
        <mxCell id="ZnSzVH5MQFXxRki79Utu-83" value="-" style="text;html=1;align=center;verticalAlign=middle;resizable=0;points=[];autosize=1;fontSize=12;fontFamily=Comic Sans MS;fontStyle=1" vertex="1" parent="1">
          <mxGeometry x="290" y="140" width="20" height="20" as="geometry" />
        </mxCell>
        <mxCell id="ZnSzVH5MQFXxRki79Utu-84" value="-" style="text;html=1;align=center;verticalAlign=middle;resizable=0;points=[];autosize=1;fontSize=12;fontFamily=Comic Sans MS;fontStyle=1" vertex="1" parent="1">
          <mxGeometry x="290" y="180" width="20" height="20" as="geometry" />
        </mxCell>
        <mxCell id="ZnSzVH5MQFXxRki79Utu-85" value="-" style="text;html=1;align=center;verticalAlign=middle;resizable=0;points=[];autosize=1;fontSize=12;fontFamily=Comic Sans MS;fontStyle=1" vertex="1" parent="1">
          <mxGeometry x="290" y="220" width="20" height="20" as="geometry" />
        </mxCell>
        <mxCell id="ZnSzVH5MQFXxRki79Utu-86" value="-" style="text;html=1;align=center;verticalAlign=middle;resizable=0;points=[];autosize=1;fontSize=12;fontFamily=Comic Sans MS;fontStyle=1" vertex="1" parent="1">
          <mxGeometry x="290" y="260" width="20" height="20" as="geometry" />
        </mxCell>
        <mxCell id="ZnSzVH5MQFXxRki79Utu-87" value="-" style="text;html=1;align=center;verticalAlign=middle;resizable=0;points=[];autosize=1;fontSize=12;fontFamily=Comic Sans MS;fontStyle=1" vertex="1" parent="1">
          <mxGeometry x="290" y="300" width="20" height="20" as="geometry" />
        </mxCell>
        <mxCell id="ZnSzVH5MQFXxRki79Utu-88" value="-" style="text;html=1;align=center;verticalAlign=middle;resizable=0;points=[];autosize=1;fontSize=12;fontFamily=Comic Sans MS;fontStyle=1" vertex="1" parent="1">
          <mxGeometry x="290" y="340" width="20" height="20" as="geometry" />
        </mxCell>
        <mxCell id="ZnSzVH5MQFXxRki79Utu-89" value="-" style="text;html=1;align=center;verticalAlign=middle;resizable=0;points=[];autosize=1;fontSize=12;fontFamily=Comic Sans MS;fontStyle=1" vertex="1" parent="1">
          <mxGeometry x="290" y="380" width="20" height="20" as="geometry" />
        </mxCell>
        <mxCell id="ZnSzVH5MQFXxRki79Utu-90" value="-" style="text;html=1;align=center;verticalAlign=middle;resizable=0;points=[];autosize=1;fontSize=12;fontFamily=Comic Sans MS;fontStyle=1" vertex="1" parent="1">
          <mxGeometry x="290" y="420" width="20" height="20" as="geometry" />
        </mxCell>
        <mxCell id="ZnSzVH5MQFXxRki79Utu-91" value="-" style="text;html=1;align=center;verticalAlign=middle;resizable=0;points=[];autosize=1;fontSize=12;fontFamily=Comic Sans MS;fontStyle=1" vertex="1" parent="1">
          <mxGeometry x="290" y="460" width="20" height="20" as="geometry" />
        </mxCell>
        <mxCell id="ZnSzVH5MQFXxRki79Utu-92" value="-" style="text;html=1;align=center;verticalAlign=middle;resizable=0;points=[];autosize=1;fontSize=12;fontFamily=Comic Sans MS;fontStyle=1" vertex="1" parent="1">
          <mxGeometry x="290" y="500" width="20" height="20" as="geometry" />
        </mxCell>
        <mxCell id="ZnSzVH5MQFXxRki79Utu-93" value="-" style="text;html=1;align=center;verticalAlign=middle;resizable=0;points=[];autosize=1;fontSize=12;fontFamily=Comic Sans MS;fontStyle=1" vertex="1" parent="1">
          <mxGeometry x="290" y="540" width="20" height="20" as="geometry" />
        </mxCell>
        <mxCell id="ZnSzVH5MQFXxRki79Utu-94" value="-" style="text;html=1;align=center;verticalAlign=middle;resizable=0;points=[];autosize=1;fontSize=12;fontFamily=Comic Sans MS;fontStyle=1" vertex="1" parent="1">
          <mxGeometry x="290" y="580" width="20" height="20" as="geometry" />
        </mxCell>
        <mxCell id="ZnSzVH5MQFXxRki79Utu-95" value="-" style="text;html=1;align=center;verticalAlign=middle;resizable=0;points=[];autosize=1;fontSize=12;fontFamily=Comic Sans MS;fontStyle=1" vertex="1" parent="1">
          <mxGeometry x="290" y="620" width="20" height="20" as="geometry" />
        </mxCell>
        <mxCell id="ZnSzVH5MQFXxRki79Utu-96" value="-" style="text;html=1;align=center;verticalAlign=middle;resizable=0;points=[];autosize=1;fontSize=12;fontFamily=Comic Sans MS;fontStyle=1" vertex="1" parent="1">
          <mxGeometry x="290" y="660" width="20" height="20" as="geometry" />
        </mxCell>
        <mxCell id="ZnSzVH5MQFXxRki79Utu-97" value="-" style="text;html=1;align=center;verticalAlign=middle;resizable=0;points=[];autosize=1;fontSize=12;fontFamily=Comic Sans MS;fontStyle=1" vertex="1" parent="1">
          <mxGeometry x="290" y="700" width="20" height="20" as="geometry" />
        </mxCell>
        <mxCell id="ZnSzVH5MQFXxRki79Utu-98" value="-" style="text;html=1;align=center;verticalAlign=middle;resizable=0;points=[];autosize=1;fontSize=12;fontFamily=Comic Sans MS;fontStyle=1" vertex="1" parent="1">
          <mxGeometry x="290" y="740" width="20" height="20" as="geometry" />
        </mxCell>
        <mxCell id="ZnSzVH5MQFXxRki79Utu-99" value="-" style="text;html=1;align=center;verticalAlign=middle;resizable=0;points=[];autosize=1;fontSize=12;fontFamily=Comic Sans MS;fontStyle=1" vertex="1" parent="1">
          <mxGeometry x="290" y="780" width="20" height="20" as="geometry" />
        </mxCell>
        <mxCell id="ZnSzVH5MQFXxRki79Utu-100" value="-" style="text;html=1;align=center;verticalAlign=middle;resizable=0;points=[];autosize=1;fontSize=12;fontFamily=Comic Sans MS;fontStyle=1" vertex="1" parent="1">
          <mxGeometry x="290" y="820" width="20" height="20" as="geometry" />
        </mxCell>
        <mxCell id="ZnSzVH5MQFXxRki79Utu-101" value="+" style="text;html=1;align=center;verticalAlign=middle;whiteSpace=wrap;rounded=1;comic=0;fontFamily=Comic Sans MS;fontSize=20;glass=1;fillColor=#33FF33;strokeColor=#000000;" vertex="1" parent="1">
          <mxGeometry x="338" y="140" width="20" height="20" as="geometry" />
        </mxCell>
        <mxCell id="ZnSzVH5MQFXxRki79Utu-102" value="-" style="text;html=1;align=center;verticalAlign=middle;whiteSpace=wrap;rounded=1;comic=0;fontFamily=Comic Sans MS;fontSize=20;glass=1;fillColor=#FF3333;strokeColor=#000000;" vertex="1" parent="1">
          <mxGeometry x="362" y="140" width="20" height="20" as="geometry" />
        </mxCell>
        <mxCell id="ZnSzVH5MQFXxRki79Utu-103" value="+" style="text;html=1;align=center;verticalAlign=middle;whiteSpace=wrap;rounded=1;comic=0;fontFamily=Comic Sans MS;fontSize=20;glass=1;fillColor=#33FF33;strokeColor=#000000;" vertex="1" parent="1">
          <mxGeometry x="338" y="180" width="20" height="20" as="geometry" />
        </mxCell>
        <mxCell id="ZnSzVH5MQFXxRki79Utu-104" value="-" style="text;html=1;align=center;verticalAlign=middle;whiteSpace=wrap;rounded=1;comic=0;fontFamily=Comic Sans MS;fontSize=20;glass=1;fillColor=#FF3333;strokeColor=#000000;" vertex="1" parent="1">
          <mxGeometry x="362" y="180" width="20" height="20" as="geometry" />
        </mxCell>
        <mxCell id="ZnSzVH5MQFXxRki79Utu-105" value="+" style="text;html=1;align=center;verticalAlign=middle;whiteSpace=wrap;rounded=1;comic=0;fontFamily=Comic Sans MS;fontSize=20;glass=1;fillColor=#33FF33;strokeColor=#000000;" vertex="1" parent="1">
          <mxGeometry x="338" y="220" width="20" height="20" as="geometry" />
        </mxCell>
        <mxCell id="ZnSzVH5MQFXxRki79Utu-106" value="-" style="text;html=1;align=center;verticalAlign=middle;whiteSpace=wrap;rounded=1;comic=0;fontFamily=Comic Sans MS;fontSize=20;glass=1;fillColor=#FF3333;strokeColor=#000000;" vertex="1" parent="1">
          <mxGeometry x="362" y="220" width="20" height="20" as="geometry" />
        </mxCell>
        <mxCell id="ZnSzVH5MQFXxRki79Utu-107" value="+" style="text;html=1;align=center;verticalAlign=middle;whiteSpace=wrap;rounded=1;comic=0;fontFamily=Comic Sans MS;fontSize=20;glass=1;fillColor=#33FF33;strokeColor=#000000;" vertex="1" parent="1">
          <mxGeometry x="338" y="260" width="20" height="20" as="geometry" />
        </mxCell>
        <mxCell id="ZnSzVH5MQFXxRki79Utu-108" value="-" style="text;html=1;align=center;verticalAlign=middle;whiteSpace=wrap;rounded=1;comic=0;fontFamily=Comic Sans MS;fontSize=20;glass=1;fillColor=#FF3333;strokeColor=#000000;" vertex="1" parent="1">
          <mxGeometry x="362" y="260" width="20" height="20" as="geometry" />
        </mxCell>
        <mxCell id="ZnSzVH5MQFXxRki79Utu-109" value="+" style="text;html=1;align=center;verticalAlign=middle;whiteSpace=wrap;rounded=1;comic=0;fontFamily=Comic Sans MS;fontSize=20;glass=1;fillColor=#33FF33;strokeColor=#000000;" vertex="1" parent="1">
          <mxGeometry x="338" y="300" width="20" height="20" as="geometry" />
        </mxCell>
        <mxCell id="ZnSzVH5MQFXxRki79Utu-110" value="-" style="text;html=1;align=center;verticalAlign=middle;whiteSpace=wrap;rounded=1;comic=0;fontFamily=Comic Sans MS;fontSize=20;glass=1;fillColor=#FF3333;strokeColor=#000000;" vertex="1" parent="1">
          <mxGeometry x="362" y="300" width="20" height="20" as="geometry" />
        </mxCell>
        <mxCell id="ZnSzVH5MQFXxRki79Utu-111" value="+" style="text;html=1;align=center;verticalAlign=middle;whiteSpace=wrap;rounded=1;comic=0;fontFamily=Comic Sans MS;fontSize=20;glass=1;fillColor=#33FF33;strokeColor=#000000;" vertex="1" parent="1">
          <mxGeometry x="338" y="340" width="20" height="20" as="geometry" />
        </mxCell>
        <mxCell id="ZnSzVH5MQFXxRki79Utu-112" value="-" style="text;html=1;align=center;verticalAlign=middle;whiteSpace=wrap;rounded=1;comic=0;fontFamily=Comic Sans MS;fontSize=20;glass=1;fillColor=#FF3333;strokeColor=#000000;" vertex="1" parent="1">
          <mxGeometry x="362" y="340" width="20" height="20" as="geometry" />
        </mxCell>
        <mxCell id="ZnSzVH5MQFXxRki79Utu-113" value="+" style="text;html=1;align=center;verticalAlign=middle;whiteSpace=wrap;rounded=1;comic=0;fontFamily=Comic Sans MS;fontSize=20;glass=1;fillColor=#33FF33;strokeColor=#000000;" vertex="1" parent="1">
          <mxGeometry x="338" y="380" width="20" height="20" as="geometry" />
        </mxCell>
        <mxCell id="ZnSzVH5MQFXxRki79Utu-114" value="-" style="text;html=1;align=center;verticalAlign=middle;whiteSpace=wrap;rounded=1;comic=0;fontFamily=Comic Sans MS;fontSize=20;glass=1;fillColor=#FF3333;strokeColor=#000000;" vertex="1" parent="1">
          <mxGeometry x="362" y="380" width="20" height="20" as="geometry" />
        </mxCell>
        <mxCell id="ZnSzVH5MQFXxRki79Utu-115" value="+" style="text;html=1;align=center;verticalAlign=middle;whiteSpace=wrap;rounded=1;comic=0;fontFamily=Comic Sans MS;fontSize=20;glass=1;fillColor=#33FF33;strokeColor=#000000;" vertex="1" parent="1">
          <mxGeometry x="338" y="420" width="20" height="20" as="geometry" />
        </mxCell>
        <mxCell id="ZnSzVH5MQFXxRki79Utu-116" value="-" style="text;html=1;align=center;verticalAlign=middle;whiteSpace=wrap;rounded=1;comic=0;fontFamily=Comic Sans MS;fontSize=20;glass=1;fillColor=#FF3333;strokeColor=#000000;" vertex="1" parent="1">
          <mxGeometry x="362" y="420" width="20" height="20" as="geometry" />
        </mxCell>
        <mxCell id="ZnSzVH5MQFXxRki79Utu-117" value="+" style="text;html=1;align=center;verticalAlign=middle;whiteSpace=wrap;rounded=1;comic=0;fontFamily=Comic Sans MS;fontSize=20;glass=1;fillColor=#33FF33;strokeColor=#000000;" vertex="1" parent="1">
          <mxGeometry x="338" y="460" width="20" height="20" as="geometry" />
        </mxCell>
        <mxCell id="ZnSzVH5MQFXxRki79Utu-118" value="-" style="text;html=1;align=center;verticalAlign=middle;whiteSpace=wrap;rounded=1;comic=0;fontFamily=Comic Sans MS;fontSize=20;glass=1;fillColor=#FF3333;strokeColor=#000000;" vertex="1" parent="1">
          <mxGeometry x="362" y="460" width="20" height="20" as="geometry" />
        </mxCell>
        <mxCell id="ZnSzVH5MQFXxRki79Utu-119" value="+" style="text;html=1;align=center;verticalAlign=middle;whiteSpace=wrap;rounded=1;comic=0;fontFamily=Comic Sans MS;fontSize=20;glass=1;fillColor=#33FF33;strokeColor=#000000;" vertex="1" parent="1">
          <mxGeometry x="338" y="500" width="20" height="20" as="geometry" />
        </mxCell>
        <mxCell id="ZnSzVH5MQFXxRki79Utu-120" value="-" style="text;html=1;align=center;verticalAlign=middle;whiteSpace=wrap;rounded=1;comic=0;fontFamily=Comic Sans MS;fontSize=20;glass=1;fillColor=#FF3333;strokeColor=#000000;" vertex="1" parent="1">
          <mxGeometry x="362" y="500" width="20" height="20" as="geometry" />
        </mxCell>
        <mxCell id="ZnSzVH5MQFXxRki79Utu-121" value="+" style="text;html=1;align=center;verticalAlign=middle;whiteSpace=wrap;rounded=1;comic=0;fontFamily=Comic Sans MS;fontSize=20;glass=1;fillColor=#33FF33;strokeColor=#000000;" vertex="1" parent="1">
          <mxGeometry x="338" y="540" width="20" height="20" as="geometry" />
        </mxCell>
        <mxCell id="ZnSzVH5MQFXxRki79Utu-122" value="-" style="text;html=1;align=center;verticalAlign=middle;whiteSpace=wrap;rounded=1;comic=0;fontFamily=Comic Sans MS;fontSize=20;glass=1;fillColor=#FF3333;strokeColor=#000000;" vertex="1" parent="1">
          <mxGeometry x="362" y="540" width="20" height="20" as="geometry" />
        </mxCell>
        <mxCell id="ZnSzVH5MQFXxRki79Utu-123" value="+" style="text;html=1;align=center;verticalAlign=middle;whiteSpace=wrap;rounded=1;comic=0;fontFamily=Comic Sans MS;fontSize=20;glass=1;fillColor=#33FF33;strokeColor=#000000;" vertex="1" parent="1">
          <mxGeometry x="338" y="580" width="20" height="20" as="geometry" />
        </mxCell>
        <mxCell id="ZnSzVH5MQFXxRki79Utu-124" value="-" style="text;html=1;align=center;verticalAlign=middle;whiteSpace=wrap;rounded=1;comic=0;fontFamily=Comic Sans MS;fontSize=20;glass=1;fillColor=#FF3333;strokeColor=#000000;" vertex="1" parent="1">
          <mxGeometry x="362" y="580" width="20" height="20" as="geometry" />
        </mxCell>
        <mxCell id="ZnSzVH5MQFXxRki79Utu-125" value="+" style="text;html=1;align=center;verticalAlign=middle;whiteSpace=wrap;rounded=1;comic=0;fontFamily=Comic Sans MS;fontSize=20;glass=1;fillColor=#33FF33;strokeColor=#000000;" vertex="1" parent="1">
          <mxGeometry x="338" y="620" width="20" height="20" as="geometry" />
        </mxCell>
        <mxCell id="ZnSzVH5MQFXxRki79Utu-126" value="-" style="text;html=1;align=center;verticalAlign=middle;whiteSpace=wrap;rounded=1;comic=0;fontFamily=Comic Sans MS;fontSize=20;glass=1;fillColor=#FF3333;strokeColor=#000000;" vertex="1" parent="1">
          <mxGeometry x="362" y="620" width="20" height="20" as="geometry" />
        </mxCell>
        <mxCell id="ZnSzVH5MQFXxRki79Utu-127" value="+" style="text;html=1;align=center;verticalAlign=middle;whiteSpace=wrap;rounded=1;comic=0;fontFamily=Comic Sans MS;fontSize=20;glass=1;fillColor=#33FF33;strokeColor=#000000;" vertex="1" parent="1">
          <mxGeometry x="338" y="660" width="20" height="20" as="geometry" />
        </mxCell>
        <mxCell id="ZnSzVH5MQFXxRki79Utu-128" value="-" style="text;html=1;align=center;verticalAlign=middle;whiteSpace=wrap;rounded=1;comic=0;fontFamily=Comic Sans MS;fontSize=20;glass=1;fillColor=#FF3333;strokeColor=#000000;" vertex="1" parent="1">
          <mxGeometry x="362" y="660" width="20" height="20" as="geometry" />
        </mxCell>
        <mxCell id="ZnSzVH5MQFXxRki79Utu-129" value="+" style="text;html=1;align=center;verticalAlign=middle;whiteSpace=wrap;rounded=1;comic=0;fontFamily=Comic Sans MS;fontSize=20;glass=1;fillColor=#33FF33;strokeColor=#000000;" vertex="1" parent="1">
          <mxGeometry x="338" y="700" width="20" height="20" as="geometry" />
        </mxCell>
        <mxCell id="ZnSzVH5MQFXxRki79Utu-130" value="-" style="text;html=1;align=center;verticalAlign=middle;whiteSpace=wrap;rounded=1;comic=0;fontFamily=Comic Sans MS;fontSize=20;glass=1;fillColor=#FF3333;strokeColor=#000000;" vertex="1" parent="1">
          <mxGeometry x="362" y="700" width="20" height="20" as="geometry" />
        </mxCell>
        <mxCell id="ZnSzVH5MQFXxRki79Utu-131" value="+" style="text;html=1;align=center;verticalAlign=middle;whiteSpace=wrap;rounded=1;comic=0;fontFamily=Comic Sans MS;fontSize=20;glass=1;fillColor=#33FF33;strokeColor=#000000;" vertex="1" parent="1">
          <mxGeometry x="338" y="740" width="20" height="20" as="geometry" />
        </mxCell>
        <mxCell id="ZnSzVH5MQFXxRki79Utu-132" value="-" style="text;html=1;align=center;verticalAlign=middle;whiteSpace=wrap;rounded=1;comic=0;fontFamily=Comic Sans MS;fontSize=20;glass=1;fillColor=#FF3333;strokeColor=#000000;" vertex="1" parent="1">
          <mxGeometry x="362" y="740" width="20" height="20" as="geometry" />
        </mxCell>
        <mxCell id="ZnSzVH5MQFXxRki79Utu-133" value="+" style="text;html=1;align=center;verticalAlign=middle;whiteSpace=wrap;rounded=1;comic=0;fontFamily=Comic Sans MS;fontSize=20;glass=1;fillColor=#33FF33;strokeColor=#000000;" vertex="1" parent="1">
          <mxGeometry x="338" y="780" width="20" height="20" as="geometry" />
        </mxCell>
        <mxCell id="ZnSzVH5MQFXxRki79Utu-134" value="-" style="text;html=1;align=center;verticalAlign=middle;whiteSpace=wrap;rounded=1;comic=0;fontFamily=Comic Sans MS;fontSize=20;glass=1;fillColor=#FF3333;strokeColor=#000000;" vertex="1" parent="1">
          <mxGeometry x="362" y="780" width="20" height="20" as="geometry" />
        </mxCell>
        <mxCell id="ZnSzVH5MQFXxRki79Utu-135" value="+" style="text;html=1;align=center;verticalAlign=middle;whiteSpace=wrap;rounded=1;comic=0;fontFamily=Comic Sans MS;fontSize=20;glass=1;fillColor=#33FF33;strokeColor=#000000;" vertex="1" parent="1">
          <mxGeometry x="338" y="820" width="20" height="20" as="geometry" />
        </mxCell>
        <mxCell id="ZnSzVH5MQFXxRki79Utu-136" value="-" style="text;html=1;align=center;verticalAlign=middle;whiteSpace=wrap;rounded=1;comic=0;fontFamily=Comic Sans MS;fontSize=20;glass=1;fillColor=#FF3333;strokeColor=#000000;" vertex="1" parent="1">
          <mxGeometry x="362" y="820" width="20" height="20" as="geometry" />
        </mxCell>
        <mxCell id="ZnSzVH5MQFXxRki79Utu-137" value="" style="endArrow=none;html=1;fontFamily=Comic Sans MS;fontSize=20;" edge="1" parent="1">
          <mxGeometry width="50" height="50" relative="1" as="geometry">
            <mxPoint y="120" as="sourcePoint" />
            <mxPoint x="400" y="120" as="targetPoint" />
          </mxGeometry>
        </mxCell>
      </root>
    </mxGraphModel>
  </diagram>
</mxfile>
